<svg width="34" height="37" viewBox="0 0 34 37" fill="none" xmlns="http://www.w3.org/2000/svg">
<g clip-path="url(#clip0_153_300)">
<path d="M6.85248 20.3839V18.1606C13.4719 17.2578 20.1473 16.8205 26.8288 16.8522C26.8288 17.4424 26.8288 18.0425 26.7693 18.6426C28.6685 17.8055 30.6644 17.2041 32.7117 16.8522C31.4069 13.4994 29.0292 10.6654 25.9444 8.78602C22.8597 6.90665 19.2388 6.08606 15.6387 6.45049C12.0386 6.81491 8.65875 8.34416 6.01908 10.803C3.37941 13.2618 1.62613 16.514 1.02895 20.0593L6.85248 20.3839Z" fill="#FDC305"/>
<path d="M27.8192 23.837C26.6703 25.0963 26.4425 25.0175 26.4425 27.2311C26.4425 28.1263 26.4425 32.0516 26.4425 36.2622C28.713 34.7727 30.577 32.748 31.8679 30.3687C33.1589 27.9895 33.8366 25.3298 33.8408 22.627C33.8277 21.603 33.7216 20.5823 33.5238 19.5772C31.4719 20.7868 29.559 22.2152 27.8192 23.837Z" fill="#FDC305"/>
<path d="M7.13969 25.3028C7.13969 25.3028 3.38609 23.8862 1.99954 23.5025C1.62028 23.3838 1.23307 23.2917 0.840775 23.2271C0.948129 26.0662 1.79709 28.8288 3.30427 31.2435C4.81146 33.6582 6.92503 35.642 9.43741 37L7.13969 25.3028Z" fill="#FDC305"/>
<path d="M26.8783 16.8423C26.9186 11.4105 26.4544 5.98656 25.4917 0.639431C25.4917 0.639431 25.3531 -0.629646 24.6103 0.403324C24.0269 1.63122 23.6265 2.93694 23.4218 4.27942C19.2045 4.00964 14.9713 4.12159 10.7744 4.61391C9.99204 1.96754 8.61538 0.737809 7.95182 0.983755C7.28825 1.2297 7.23873 4.24007 7.23873 4.24007L6.9119 18.1114C13.529 17.2221 20.2011 16.798 26.8783 16.8423V16.8423Z" fill="#F06351"/>
<path d="M13.1316 13.7729C13.1316 13.6844 14.122 14.4419 14.5281 14.678C14.9341 14.9141 15.1322 15.0912 15.1322 15.2584C15.1322 15.4257 14.8648 15.5929 14.5082 15.5929C14.1517 15.5929 13.607 15.4749 13.5178 15.3273H14.4488H14.736C14.1326 14.884 13.5928 14.3611 13.1316 13.7729V13.7729Z" fill="black"/>
<path d="M20.5398 13.8811L19.4602 15.1896C19.4602 15.2486 19.2919 15.5339 19.6385 15.4847C20.0487 15.424 20.4529 15.3285 20.8468 15.1994C20.9557 15.1994 20.9161 15.0125 20.7378 15.0322C20.5596 15.0518 20.0545 15.0814 19.7474 15.1404L20.5794 13.9008C20.5794 13.9008 20.6487 13.7729 20.5398 13.8811Z" fill="black"/>
<path d="M17.4299 19.8724C17.889 19.6715 18.2685 19.3257 18.5094 18.8886C18.7868 18.2491 18.5094 17.9934 18.0737 17.9048C17.4773 17.7968 16.8619 17.9162 16.3504 18.2393C15.9641 18.5935 16.0136 18.9476 16.3009 19.2231C16.6488 19.485 17.028 19.7031 17.4299 19.8724V19.8724Z" fill="black"/>
<path d="M17.0338 21.1021C16.9228 21.3269 16.7679 21.5275 16.5782 21.6924C16.2961 21.9178 15.9494 22.0487 15.5878 22.0662C15.0667 22.1075 14.5485 21.9569 14.1319 21.6432C13.936 21.5259 13.7591 21.38 13.607 21.2103C13.5074 21.1012 13.386 21.0141 13.2504 20.9545C13.2504 20.9545 13.9932 24.988 15.7958 25.6275C17.5983 26.2669 17.9152 24.8897 17.9746 24.5158C18.0342 23.3994 17.751 22.2913 17.1625 21.3382C17.1427 21.0332 17.1328 21.23 17.0338 21.1021Z" fill="#F06351"/>
<path d="M15.4095 22.2236C14.9493 22.1594 14.5071 22.0024 14.1103 21.7621C13.7134 21.5219 13.3703 21.2035 13.1019 20.8266C13.0887 20.8138 13.0782 20.7985 13.0711 20.7816C13.0639 20.7647 13.0603 20.7466 13.0603 20.7283C13.0603 20.7099 13.0639 20.6918 13.0711 20.6749C13.0782 20.658 13.0887 20.6427 13.1019 20.6299C13.1148 20.6168 13.1302 20.6064 13.1472 20.5993C13.1642 20.5922 13.1825 20.5885 13.2009 20.5885C13.2194 20.5885 13.2376 20.5922 13.2546 20.5993C13.2716 20.6064 13.287 20.6168 13.3 20.6299C13.7999 21.3128 14.5508 21.7724 15.3897 21.9088V21.9088C15.7182 21.8842 16.036 21.7822 16.3168 21.6111C16.5976 21.44 16.8332 21.2048 17.004 20.925L17.1427 20.7381L17.2417 20.9447C17.2417 20.9447 17.6082 21.6924 18.2321 21.7317C18.8561 21.7711 19.272 21.3284 19.8267 20.4725C19.8396 20.4594 19.855 20.449 19.872 20.4419C19.889 20.4348 19.9073 20.4311 19.9257 20.4311C19.9442 20.4311 19.9624 20.4348 19.9794 20.4419C19.9964 20.449 20.0118 20.4594 20.0247 20.4725C20.0568 20.4928 20.0797 20.5245 20.0889 20.5611C20.0981 20.5977 20.0929 20.6364 20.0743 20.6692C19.4404 21.653 18.8165 22.0859 18.2123 22.0465C17.9825 22.0133 17.7633 21.9288 17.5712 21.7993C17.3791 21.6698 17.219 21.4987 17.1031 21.2989C16.9083 21.5689 16.655 21.7921 16.3619 21.9522C16.0689 22.1122 15.7434 22.2049 15.4095 22.2236V22.2236Z" fill="black"/>
<path d="M26.8288 18.6131C25.0505 20.2105 23.3735 21.9157 21.8075 23.719C20.2512 25.5155 18.4934 27.1295 16.5683 28.5296C16.3504 28.0082 14.9638 27.0441 14.9638 27.0441C14.9638 27.0441 11.8639 24.9388 9.83357 23.2861C8.73833 22.3686 7.70293 21.3828 6.73363 20.3348L4.75284 20.2265C7.61526 24.3639 11.8047 27.4156 16.6376 28.8838C17.4893 28.7461 19.8762 27.054 21.6589 25.6767C23.7574 23.888 25.7235 21.9515 27.5419 19.8822C28.0395 19.3028 28.4226 18.6352 28.6709 17.9146C27.5815 18.2983 26.8288 18.6131 26.8288 18.6131Z" fill="#F06351"/>
</g>
<defs>
<clipPath id="clip0_153_300">
<rect width="33" height="37" fill="white" transform="translate(0.840775)"/>
</clipPath>
</defs>
</svg>
