<svg width="101" height="19" viewBox="0 0 101 19" fill="none" xmlns="http://www.w3.org/2000/svg">
<g clip-path="url(#clip0_135_3364)">
<path d="M1.26526 17.0385C0.370328 15.7762 -0.0739259 14.2627 0.000788406 12.7308V6.34615C-0.107587 4.79774 0.308849 3.25746 1.18623 1.96154C2.05556 0.961538 3.39907 0.5 5.37481 0.5C7.35055 0.5 8.61503 0.961538 9.40533 1.80769C10.2633 2.87941 10.6854 4.22136 10.5908 5.57692V7.11539H6.71832V5.34615C6.74959 4.82289 6.66886 4.299 6.48123 3.80769C6.38094 3.60938 6.22198 3.4448 6.02481 3.33513C5.82764 3.22547 5.60126 3.17572 5.37481 3.19231C4.8216 3.19231 4.42645 3.34615 4.26839 3.73077C4.08961 4.27733 4.0094 4.84988 4.0313 5.42308V13.6538C3.98957 14.21 4.09858 14.767 4.34742 15.2692C4.50548 15.6538 4.90063 15.8077 5.45384 15.8077C6.00705 15.8077 6.32317 15.6538 6.48123 15.2692C6.66091 14.7494 6.74126 14.2019 6.71832 13.6538V11.8077H10.5908V13.3462C10.6711 14.7238 10.2516 16.0852 9.40533 17.1923C8.61503 18.1154 7.27152 18.5769 5.37481 18.5769C3.4781 18.5 2.05556 18.0385 1.26526 17.0385Z" fill="#111111"/>
<path d="M15.2535 0.73077H19.7582L23.0775 18.2692H19.4421L18.8099 14.5769H16.2019L15.5696 18.2692H11.8552L15.2535 0.73077ZM18.4937 12.2692L17.5454 5.42308L16.597 12.2692H18.4937Z" fill="#111111"/>
<path d="M25.8435 3.65385H23.1565V0.73077H32.561V3.57692H29.874V18.2692H25.8435V3.65385Z" fill="#111111"/>
<path d="M39.7527 0.73077H46.7074V2.57692H42.2027V8.34615H45.838V10.1154H42.2027V16.5769H46.7074V18.3462H39.6737V0.73077H39.7527Z" fill="#111111"/>
<path d="M48.7621 0.73077H50.5008L55.6377 12.3462V0.73077H57.6925V18.2692H56.1119L50.8959 6.26923V18.2692H48.7621V0.73077Z" fill="#111111"/>
<path d="M60.0634 0.73077H67.018V2.57692H62.5133V8.34615H66.1487V10.1154H62.5133V16.5769H67.018V18.3462H60.0634V0.73077Z" fill="#111111"/>
<path d="M69.0728 0.73077H72.7082C74.1382 0.634618 75.5594 1.01435 76.7387 1.80769C77.608 2.5 78.0031 3.73077 78.0031 5.34616C78.0031 7.57692 77.2919 8.96154 75.7903 9.42308L78.3193 18.1923H75.8693L73.4984 9.96154H71.5227V18.1923H68.9938V0.73077H69.0728ZM72.5501 8.26923C73.3648 8.33458 74.1769 8.11652 74.842 7.65385C75.3161 7.26923 75.5532 6.5 75.5532 5.34616C75.5751 4.77296 75.4949 4.2004 75.3161 3.65385C75.1383 3.26166 74.8328 2.9373 74.4468 2.73077C73.9025 2.48934 73.305 2.3836 72.7082 2.42308H71.6017V8.19231H72.5501V8.26923Z" fill="#111111"/>
<path d="M81.1643 16.9615C80.3428 15.6166 79.9572 14.0617 80.0579 12.5V6.65384C80.0384 5.5391 80.1713 4.42679 80.453 3.34615C80.7175 2.53863 81.2445 1.83668 81.9546 1.34615C82.837 0.837746 83.855 0.596728 84.8787 0.653842C86.5383 0.653842 87.7238 1.03846 88.435 1.88461C89.2532 3.00191 89.6446 4.36237 89.5414 5.73077V6.34615H87.1706V5.80769C87.1741 5.16346 87.1213 4.5201 87.0125 3.88461C86.9459 3.48303 86.7185 3.12348 86.3803 2.88461C85.9361 2.60082 85.4089 2.46578 84.8787 2.5C84.312 2.46465 83.7512 2.62843 83.2981 2.96154C83.1122 3.11401 82.9603 3.30181 82.8515 3.51344C82.7428 3.72507 82.6796 3.95608 82.6659 4.1923C82.5617 4.87999 82.5089 5.57411 82.5078 6.26923V12.8077C82.4495 13.8038 82.6112 14.8006 82.982 15.7308C83.2981 16.3462 83.9303 16.5769 84.8787 16.5769C85.2531 16.6223 85.633 16.5589 85.9705 16.3947C86.308 16.2304 86.5881 15.9727 86.7754 15.6538C87.193 14.6811 87.382 13.6299 87.3286 12.5769V11.3462H85.0367V9.57692H89.6205V18.2692H88.0399L87.8028 16.2692C87.5956 16.9395 87.1642 17.5231 86.5771 17.9273C85.99 18.3315 85.2809 18.5331 84.5626 18.5C83.9096 18.5374 83.2572 18.4164 82.6641 18.1479C82.071 17.8794 81.5556 17.4717 81.1643 16.9615Z" fill="#111111"/>
<path d="M94.6784 12.1154L90.8059 0.807692H93.1768L95.9429 9.26923L98.6299 0.807692H101.001L97.1283 12.1154V18.2692H94.7574V12.1154H94.6784Z" fill="#111111"/>
</g>
<defs>
<clipPath id="clip0_135_3364">
<rect width="101" height="18" fill="white" transform="translate(0.000778198 0.5)"/>
</clipPath>
</defs>
</svg>
